<svg width="122" height="122" viewBox="0 0 122 122" fill="none" xmlns="http://www.w3.org/2000/svg">
<path d="M92.4285 74.298C93.3902 93.2998 78.2033 102.69 70.4897 105.01C64.0836 105.948 56.371 105.728 49.4525 104.253C28.4153 98.2015 21.2025 72.7852 35.628 56.2948C47.1684 43.1025 52.9587 23.6671 54.4113 15.5984C66.683 27.2476 91.4668 55.2963 92.4285 74.298Z" stroke="#919EAB" stroke-width="1.94883"/>
<path d="M43.9535 86.1369C42.4347 90.0301 42.943 93.5481 44.1838 96.4657C46.8007 102.619 54.1407 105.09 60.8098 105.574H63.2976C68.3827 105.574 73.3685 103.271 76.6987 99.4281C80.6872 94.8253 84.3159 88.8909 82.7994 75.3662C81.684 65.4181 65.6684 46.3722 65.8144 47.3218C68.7138 66.1842 58.4493 79.91 58.3208 78.2934C57.617 69.4335 51.1756 64.5398 51.2356 65.2683C52.0672 75.3662 46.4721 79.6804 43.9535 86.1369Z" stroke="#FDC500" stroke-width="1.94883"/>
</svg>
