<svg width="122" height="122" viewBox="0 0 122 122" fill="none" xmlns="http://www.w3.org/2000/svg">
<path d="M43.6089 95.8033L40.7818 90.9067V78.4376C40.7818 71.6213 37.3213 65.3907 33.9114 59.4887C31.2899 54.9513 29.7898 49.6847 29.7898 44.0677C29.7898 27.0182 43.6111 13.1968 60.6606 13.1968C77.7101 13.1968 91.5315 27.0182 91.5315 44.0677C91.5315 49.6847 90.0313 54.9514 87.4098 59.4888C83.9999 65.3909 80.5392 71.6215 80.5392 78.4378V90.907L77.7124 95.8033H43.6089Z" stroke="#919EAB" stroke-width="1.94883" stroke-linecap="round"/>
<path d="M45.4717 102.458L75.8495 102.458" stroke="#919EAB" stroke-width="1.94883" stroke-linecap="round"/>
<path d="M48.9859 108.803H72.3351" stroke="#919EAB" stroke-width="1.94883" stroke-linecap="round"/>
<path d="M66.8188 30.3834L54.569 50.7182H66.8188L54.569 72.7681" stroke="#FDC500" stroke-width="1.94883" stroke-linecap="round"/>
</svg>
