<svg width="121" height="122" viewBox="0 0 121 122" fill="none" xmlns="http://www.w3.org/2000/svg">
<path d="M40.9241 59.9932H39.9497V60.9676L39.9497 86.3197H15.4062V60.9676V42.4365C15.4062 38.6694 18.46 35.6156 22.2271 35.6156H105.766V59.9932H40.9241Z" stroke="#919EAB" stroke-width="1.94883"/>
<path d="M72.751 36.0365V20.447" stroke="#919EAB" stroke-width="1.94883" stroke-linecap="round"/>
<path d="M54.1592 20.447L91.3424 20.447" stroke="#919EAB" stroke-width="1.94883" stroke-linecap="round"/>
<path d="M35.3258 105.98C35.3258 111.213 31.7723 115.165 27.7186 115.165C23.6649 115.165 20.1114 111.213 20.1114 105.98C20.1114 104.808 20.5882 103.367 21.3966 101.795C22.1951 100.242 23.2671 98.6558 24.3463 97.218C25.423 95.7834 26.4911 94.5176 27.2746 93.6021C27.3738 93.4862 27.4693 93.3749 27.5602 93.269C27.6147 93.2054 27.6676 93.1438 27.7186 93.0844C27.7696 93.1438 27.8224 93.2054 27.877 93.269C27.9678 93.3749 28.0634 93.4862 28.1626 93.6021C28.9461 94.5176 30.0141 95.7834 31.0909 97.218C32.1701 98.6558 33.2421 100.242 34.0406 101.795C34.849 103.367 35.3258 104.808 35.3258 105.98Z" stroke="#FDC500" stroke-width="1.94883"/>
</svg>
